# Blender v2.73 (sub 0) OBJ File: 'table_top_high.blend'
# www.blender.org
mtllib table_high.mtl
o Cube.001_Cube
v -1.000000 -0.166024 1.000000
v -1.000000 -0.166024 -1.000000
v 1.000000 -0.166024 -1.000000
v 1.000000 -0.166024 1.000000
v -1.000000 0.093780 1.000000
v -1.000000 0.093780 -1.000000
v 1.000000 0.093780 -1.000000
v 1.000000 0.093780 1.000000
v -0.925726 0.093780 0.925726
v -0.925726 0.093780 -0.925726
v 0.925726 0.093780 -0.925726
v 0.925726 0.093780 0.925726
v -0.925726 0.000000 0.925726
v -0.925726 0.000000 -0.925726
v 0.925726 0.000000 -0.925726
v 0.925726 0.000000 0.925726
v -1.000000 0.093780 0.000000
v 0.000000 0.093780 -1.000000
v 1.000000 0.093780 0.000000
v 0.000000 0.093780 1.000000
v -0.925726 0.093780 0.000000
v 0.000000 0.093780 -0.925726
v 0.925726 0.093780 0.000000
v 0.000000 0.093780 0.925726
v -0.962863 0.093780 0.962863
v 0.962863 0.093780 0.962863
v 0.962863 0.093780 -0.962863
v -0.962863 0.093780 -0.962863
v -0.925726 0.000000 0.000000
v 0.000000 0.000000 -0.925726
v 0.925726 0.000000 0.000000
v 0.000000 0.000000 0.925726
v -0.925726 0.046890 0.925726
v 0.925726 0.046890 0.925726
v 0.925726 0.046890 -0.925726
v -0.925726 0.046890 -0.925726
v -0.925726 0.046890 0.000000
v 0.000000 0.046890 -0.925726
v 0.925726 0.046890 0.000000
v -0.962863 0.093780 0.000000
v 0.000000 0.093780 -0.962863
v 0.962863 0.093780 0.000000
v 0.000000 0.046890 0.925726
v 0.000000 0.093780 0.962863
v -1.000000 0.093780 -0.500000
v 0.500000 0.093780 -1.000000
v 1.000000 0.093780 0.500000
v -0.500000 0.093780 1.000000
v -0.925726 0.093780 -0.462863
v 0.462863 0.093780 -0.925726
v 0.925726 0.093780 0.462863
v -0.462863 0.093780 0.925726
v -0.981431 0.093780 0.981431
v 0.944294 0.093780 0.944294
v 0.944294 0.093780 -0.944294
v -0.944294 0.093780 -0.944294
v -0.925726 0.000000 -0.462863
v 0.462863 0.000000 -0.925726
v 0.925726 0.000000 0.462863
v -0.462863 0.000000 0.925726
v -0.925726 0.070335 0.925726
v 0.925726 0.023445 0.925726
v 0.925726 0.023445 -0.925726
v -0.925726 0.023445 -0.925726
v -1.000000 0.093780 0.500000
v -0.500000 0.093780 -1.000000
v 1.000000 0.093780 -0.500000
v 0.500000 0.093780 1.000000
v -0.925726 0.093780 0.462863
v -0.462863 0.093780 -0.925726
v 0.925726 0.093780 -0.462863
v 0.462863 0.093780 0.925726
v -0.944294 0.093780 0.944294
v 0.981431 0.093780 0.981431
v 0.981431 0.093780 -0.981431
v -0.981431 0.093780 -0.981431
v -0.925726 0.000000 0.462863
v -0.462863 0.000000 -0.925726
v 0.925726 0.000000 -0.462863
v 0.462863 0.000000 0.925726
v -0.925726 0.023445 0.925726
v 0.925726 0.070335 0.925726
v 0.925726 0.070335 -0.925726
v -0.925726 0.070335 -0.925726
v -0.925726 0.023445 0.000000
v -0.925726 0.070335 0.000000
v -0.925726 0.046890 -0.462863
v -0.925726 0.046890 0.462863
v 0.000000 0.023445 -0.925726
v 0.000000 0.070335 -0.925726
v 0.462863 0.046890 -0.925726
v -0.462863 0.046890 -0.925726
v 0.925726 0.023445 0.000000
v 0.925726 0.070335 0.000000
v 0.925726 0.046890 0.462863
v 0.925726 0.046890 -0.462863
v -0.944294 0.093780 0.000000
v -0.981431 0.093780 0.000000
v -0.962863 0.093780 -0.481431
v -0.962863 0.093780 0.481431
v 0.000000 0.093780 -0.944294
v 0.000000 0.093780 -0.981431
v 0.481431 0.093780 -0.962863
v -0.481431 0.093780 -0.962863
v 0.944294 0.093780 0.000000
v 0.981431 0.093780 0.000000
v 0.962863 0.093780 0.481431
v 0.962863 0.093780 -0.481431
v 0.000000 0.023445 0.925726
v 0.000000 0.070335 0.925726
v -0.462863 0.046890 0.925726
v 0.462863 0.046890 0.925726
v 0.000000 0.093780 0.944294
v 0.000000 0.093780 0.981431
v -0.481431 0.093780 0.962863
v 0.481431 0.093780 0.962863
v 0.490716 0.093780 0.981431
v -0.490716 0.093780 0.981431
v -0.472147 0.093780 0.944294
v 0.462863 0.070335 0.925726
v -0.462863 0.070335 0.925726
v -0.462863 0.023445 0.925726
v 0.981431 0.093780 -0.490716
v 0.981431 0.093780 0.490716
v 0.944294 0.093780 0.472147
v -0.490716 0.093780 -0.981431
v 0.490716 0.093780 -0.981431
v 0.472147 0.093780 -0.944294
v -0.981431 0.093780 0.490716
v -0.981431 0.093780 -0.490716
v -0.944294 0.093780 -0.472147
v 0.925726 0.070335 -0.462863
v 0.925726 0.070335 0.462863
v 0.925726 0.023445 0.462863
v -0.462863 0.070335 -0.925726
v 0.462863 0.070335 -0.925726
v 0.462863 0.023445 -0.925726
v -0.925726 0.070335 0.462863
v -0.925726 0.070335 -0.462863
v -0.925726 0.023445 -0.462863
v -0.925726 0.023445 0.462863
v -0.462863 0.023445 -0.925726
v 0.925726 0.023445 -0.462863
v -0.944294 0.093780 0.472147
v -0.472147 0.093780 -0.944294
v 0.944294 0.093780 -0.472147
v 0.462863 0.023445 0.925726
v 0.472147 0.093780 0.944294
vt 0.100404 0.100404
vt 0.100404 0.300202
vt 0.100404 0.500000
vt 0.100404 0.699798
vt 0.100404 0.899596
vt 0.155050 0.844950
vt 0.155050 0.155050
vt 0.300202 0.899596
vt 0.500000 0.899596
vt 0.699798 0.899596
vt 0.899596 0.899596
vt 0.844950 0.844950
vt 0.899596 0.699798
vt 0.899596 0.500000
vt 0.899596 0.300202
vt 0.899596 0.100404
vt 0.844950 0.155050
vt 0.699798 0.100404
vt 0.500000 0.100404
vt 0.300202 0.100404
vt 0.712336 0.075328
vt 0.924672 0.075328
vt 0.933030 0.066970
vt 0.716515 0.066970
vt 0.741629 0.016743
vt 0.983258 0.016743
vt 1.000000 0.000000
vt 0.750000 0.000000
vt 0.924672 0.712336
vt 0.924672 0.924672
vt 0.933030 0.933030
vt 0.933030 0.716515
vt 0.287664 0.924672
vt 0.075328 0.924672
vt 0.066970 0.933030
vt 0.283485 0.933030
vt 0.075328 0.287664
vt 0.075328 0.075328
vt 0.066970 0.066970
vt 0.066970 0.283485
vt 0.983258 0.741629
vt 0.983258 0.983258
vt 1.000000 1.000000
vt 1.000000 0.750000
vt 0.258371 0.983258
vt 0.016743 0.983258
vt 0.000000 1.000000
vt 0.250000 1.000000
vt 0.016743 0.258371
vt 0.016743 0.016743
vt 0.000000 0.000000
vt 0.000000 0.250000
vt 0.016743 0.741629
vt 0.016743 0.500000
vt 0.000000 0.500000
vt 0.000000 0.750000
vt 0.050227 0.724886
vt 0.050227 0.500000
vt 0.033485 0.500000
vt 0.033485 0.733258
vt 0.050227 0.275114
vt 0.050227 0.050227
vt 0.033485 0.033485
vt 0.033485 0.266742
vt 0.741629 0.983258
vt 0.500000 0.983258
vt 0.500000 1.000000
vt 0.750000 1.000000
vt 0.724886 0.949773
vt 0.500000 0.949773
vt 0.500000 0.966515
vt 0.733258 0.966515
vt 0.275114 0.949773
vt 0.050227 0.949773
vt 0.033485 0.966515
vt 0.266742 0.966515
vt 0.983258 0.258371
vt 0.983258 0.500000
vt 1.000000 0.500000
vt 1.000000 0.250000
vt 0.949773 0.275114
vt 0.949773 0.500000
vt 0.966515 0.500000
vt 0.966515 0.266742
vt 0.949773 0.724886
vt 0.949773 0.949773
vt 0.966515 0.966515
vt 0.966515 0.733258
vt 0.075328 0.712336
vt 0.075328 0.500000
vt 0.066970 0.500000
vt 0.066970 0.716515
vt 0.092045 0.703977
vt 0.092045 0.500000
vt 0.083687 0.500000
vt 0.083687 0.708157
vt 0.092045 0.296023
vt 0.092045 0.092045
vt 0.083687 0.083687
vt 0.083687 0.291843
vt 0.712336 0.924672
vt 0.500000 0.924672
vt 0.500000 0.933030
vt 0.716515 0.933030
vt 0.703977 0.907955
vt 0.500000 0.907955
vt 0.500000 0.916313
vt 0.708157 0.916313
vt 0.296023 0.907955
vt 0.092045 0.907955
vt 0.083687 0.916313
vt 0.291843 0.916313
vt 0.924672 0.287664
vt 0.924672 0.500000
vt 0.933030 0.500000
vt 0.933030 0.283485
vt 0.907955 0.296023
vt 0.907955 0.500000
vt 0.916313 0.500000
vt 0.916313 0.291843
vt 0.907955 0.703977
vt 0.907955 0.907955
vt 0.916313 0.916313
vt 0.916313 0.708157
vt 0.258371 0.016743
vt 0.500000 0.016743
vt 0.500000 0.000000
vt 0.250000 0.000000
vt 0.275114 0.050227
vt 0.500000 0.050227
vt 0.500000 0.033485
vt 0.266742 0.033485
vt 0.724886 0.050227
vt 0.949773 0.050227
vt 0.966515 0.033485
vt 0.733258 0.033485
vt 0.287664 0.075328
vt 0.500000 0.075328
vt 0.500000 0.066970
vt 0.283485 0.066970
vt 0.296023 0.092045
vt 0.500000 0.092045
vt 0.500000 0.083687
vt 0.291843 0.083687
vt 0.703977 0.092045
vt 0.907955 0.092045
vt 0.916313 0.083687
vt 0.708157 0.083687
vn -0.577300 0.577300 0.577300
vn -0.707100 0.707100 0.000000
vn -0.577300 0.577300 -0.577300
vn -0.577300 -0.577300 -0.577300
vn -0.577300 -0.577300 0.577300
vn 0.000000 0.707100 -0.707100
vn 0.577300 0.577300 -0.577300
vn 0.577300 -0.577300 -0.577300
vn 0.707100 0.707100 0.000000
vn 0.577300 0.577300 0.577300
vn 0.577300 -0.577300 0.577300
vn 0.000000 0.707100 0.707100
vn 0.000000 1.000000 0.000000
vn -0.301500 0.904500 -0.301500
vn 0.000000 0.000000 -1.000000
vn -0.707100 0.000000 -0.707100
vn -0.301500 0.904500 0.301500
vn 0.301500 0.904500 0.301500
vn 0.301500 0.904500 -0.301500
vn -1.000000 0.000000 0.000000
vn -0.707100 0.000000 0.707100
vn 0.000000 0.000000 1.000000
vn 0.707100 0.000000 0.707100
vn 1.000000 0.000000 0.000000
vn 0.707100 0.000000 -0.707100
usemtl None
s 1
f 5/1/1 65/2/2 17/3/2 45/4/2 6/5/3 2/6/4 1/7/5
f 6/5/3 66/8/6 18/9/6 46/10/6 7/11/7 3/12/8 2/6/4
f 7/11/7 67/13/9 19/14/9 47/15/9 8/16/10 4/17/11 3/12/8
f 8/16/10 68/18/12 20/19/12 48/20/12 5/1/1 1/7/5 4/17/11
f 1/7/5 2/6/4 3/12/8 4/17/11
f 148/21/13 54/22/13 12/23/14 72/24/6
f 147/25/15 62/26/16 16/27/16 80/28/15
f 146/29/13 55/30/13 11/31/17 71/32/2
f 145/33/13 56/34/13 10/35/18 70/36/12
f 144/37/13 73/38/13 9/39/19 69/40/9
f 143/41/20 63/42/21 15/43/21 79/44/20
f 142/45/22 64/46/23 14/47/23 78/48/22
f 141/49/24 81/50/25 13/51/25 77/52/24
f 140/53/24 85/54/24 29/55/24 57/56/24
f 139/57/24 86/58/24 37/59/24 87/60/24
f 138/61/24 61/62/25 33/63/25 88/64/24
f 137/65/22 89/66/22 30/67/22 58/68/22
f 136/69/22 90/70/22 38/71/22 91/72/22
f 135/73/22 84/74/23 36/75/23 92/76/22
f 134/77/20 93/78/20 31/79/20 59/80/20
f 133/81/20 94/82/20 39/83/20 95/84/20
f 132/85/20 83/86/21 35/87/21 96/88/20
f 131/89/13 97/90/13 21/91/9 49/92/9
f 130/93/13 98/94/13 40/95/13 99/96/13
f 129/97/13 53/98/13 25/99/13 100/100/13
f 128/101/13 101/102/13 22/103/12 50/104/12
f 127/105/13 102/106/13 41/107/13 103/108/13
f 126/109/13 76/110/13 28/111/13 104/112/13
f 125/113/13 105/114/13 23/115/2 51/116/2
f 124/117/13 106/118/13 42/119/13 107/120/13
f 123/121/13 75/122/13 27/123/13 108/124/13
f 122/125/15 109/126/15 32/127/15 60/128/15
f 121/129/15 110/130/15 43/131/15 111/132/15
f 120/133/15 82/134/16 34/135/16 112/136/15
f 119/137/13 113/138/13 24/139/6 52/140/6
f 118/141/13 114/142/13 44/143/13 115/144/13
f 117/145/13 74/146/13 26/147/13 116/148/13
f 114/142/13 117/145/13 116/148/13 44/143/13
f 20/19/12 68/18/12 117/145/13 114/142/13
f 68/18/12 8/16/10 74/146/13 117/145/13
f 53/98/13 118/141/13 115/144/13 25/99/13
f 5/1/1 48/20/12 118/141/13 53/98/13
f 48/20/12 20/19/12 114/142/13 118/141/13
f 73/38/13 119/137/13 52/140/6 9/39/19
f 25/99/13 115/144/13 119/137/13 73/38/13
f 115/144/13 44/143/13 113/138/13 119/137/13
f 110/130/15 120/133/15 112/136/15 43/131/15
f 24/139/6 72/24/6 120/133/15 110/130/15
f 72/24/6 12/23/14 82/134/16 120/133/15
f 61/62/25 121/129/15 111/132/15 33/63/25
f 9/39/19 52/140/6 121/129/15 61/62/25
f 52/140/6 24/139/6 110/130/15 121/129/15
f 81/50/25 122/125/15 60/128/15 13/51/25
f 33/63/25 111/132/15 122/125/15 81/50/25
f 111/132/15 43/131/15 109/126/15 122/125/15
f 106/118/13 123/121/13 108/124/13 42/119/13
f 19/14/9 67/13/9 123/121/13 106/118/13
f 67/13/9 7/11/7 75/122/13 123/121/13
f 74/146/13 124/117/13 107/120/13 26/147/13
f 8/16/10 47/15/9 124/117/13 74/146/13
f 47/15/9 19/14/9 106/118/13 124/117/13
f 54/22/13 125/113/13 51/116/2 12/23/14
f 26/147/13 107/120/13 125/113/13 54/22/13
f 107/120/13 42/119/13 105/114/13 125/113/13
f 102/106/13 126/109/13 104/112/13 41/107/13
f 18/9/6 66/8/6 126/109/13 102/106/13
f 66/8/6 6/5/3 76/110/13 126/109/13
f 75/122/13 127/105/13 103/108/13 27/123/13
f 7/11/7 46/10/6 127/105/13 75/122/13
f 46/10/6 18/9/6 102/106/13 127/105/13
f 55/30/13 128/101/13 50/104/12 11/31/17
f 27/123/13 103/108/13 128/101/13 55/30/13
f 103/108/13 41/107/13 101/102/13 128/101/13
f 98/94/13 129/97/13 100/100/13 40/95/13
f 17/3/2 65/2/2 129/97/13 98/94/13
f 65/2/2 5/1/1 53/98/13 129/97/13
f 76/110/13 130/93/13 99/96/13 28/111/13
f 6/5/3 45/4/2 130/93/13 76/110/13
f 45/4/2 17/3/2 98/94/13 130/93/13
f 56/34/13 131/89/13 49/92/9 10/35/18
f 28/111/13 99/96/13 131/89/13 56/34/13
f 99/96/13 40/95/13 97/90/13 131/89/13
f 94/82/20 132/85/20 96/88/20 39/83/20
f 23/115/2 71/32/2 132/85/20 94/82/20
f 71/32/2 11/31/17 83/86/21 132/85/20
f 82/134/16 133/81/20 95/84/20 34/135/16
f 12/23/14 51/116/2 133/81/20 82/134/16
f 51/116/2 23/115/2 94/82/20 133/81/20
f 62/26/16 134/77/20 59/80/20 16/27/16
f 34/135/16 95/84/20 134/77/20 62/26/16
f 95/84/20 39/83/20 93/78/20 134/77/20
f 90/70/22 135/73/22 92/76/22 38/71/22
f 22/103/12 70/36/12 135/73/22 90/70/22
f 70/36/12 10/35/18 84/74/23 135/73/22
f 83/86/21 136/69/22 91/72/22 35/87/21
f 11/31/17 50/104/12 136/69/22 83/86/21
f 50/104/12 22/103/12 90/70/22 136/69/22
f 63/42/21 137/65/22 58/68/22 15/43/21
f 35/87/21 91/72/22 137/65/22 63/42/21
f 91/72/22 38/71/22 89/66/22 137/65/22
f 86/58/24 138/61/24 88/64/24 37/59/24
f 21/91/9 69/40/9 138/61/24 86/58/24
f 69/40/9 9/39/19 61/62/25 138/61/24
f 84/74/23 139/57/24 87/60/24 36/75/23
f 10/35/18 49/92/9 139/57/24 84/74/23
f 49/92/9 21/91/9 86/58/24 139/57/24
f 64/46/23 140/53/24 57/56/24 14/47/23
f 36/75/23 87/60/24 140/53/24 64/46/23
f 87/60/24 37/59/24 85/54/24 140/53/24
f 85/54/24 141/49/24 77/52/24 29/55/24
f 37/59/24 88/64/24 141/49/24 85/54/24
f 88/64/24 33/63/25 81/50/25 141/49/24
f 89/66/22 142/45/22 78/48/22 30/67/22
f 38/71/22 92/76/22 142/45/22 89/66/22
f 92/76/22 36/75/23 64/46/23 142/45/22
f 93/78/20 143/41/20 79/44/20 31/79/20
f 39/83/20 96/88/20 143/41/20 93/78/20
f 96/88/20 35/87/21 63/42/21 143/41/20
f 97/90/13 144/37/13 69/40/9 21/91/9
f 40/95/13 100/100/13 144/37/13 97/90/13
f 100/100/13 25/99/13 73/38/13 144/37/13
f 101/102/13 145/33/13 70/36/12 22/103/12
f 41/107/13 104/112/13 145/33/13 101/102/13
f 104/112/13 28/111/13 56/34/13 145/33/13
f 105/114/13 146/29/13 71/32/2 23/115/2
f 42/119/13 108/124/13 146/29/13 105/114/13
f 108/124/13 27/123/13 55/30/13 146/29/13
f 109/126/15 147/25/15 80/28/15 32/127/15
f 43/131/15 112/136/15 147/25/15 109/126/15
f 112/136/15 34/135/16 62/26/16 147/25/15
f 113/138/13 148/21/13 72/24/6 24/139/6
f 44/143/13 116/148/13 148/21/13 113/138/13
f 116/148/13 26/147/13 54/22/13 148/21/13
