# Blender v2.73 (sub 0) OBJ File: 'table_top.blend'
# www.blender.org
mtllib table_low.mtl
o Cube.001_Cube
v -1.000000 -0.166024 1.000000
v -1.000000 -0.166024 -1.000000
v 1.000000 -0.166024 -1.000000
v 1.000000 -0.166024 1.000000
v -1.000000 0.093780 1.000000
v -1.000000 0.093780 -1.000000
v 1.000000 0.093780 -1.000000
v 1.000000 0.093780 1.000000
v -0.925726 0.093780 0.925726
v -0.925726 0.093780 -0.925726
v 0.925726 0.093780 -0.925726
v 0.925726 0.093780 0.925726
v -0.925726 0.000000 0.925726
v -0.925726 0.000000 -0.925726
v 0.925726 0.000000 -0.925726
v 0.925726 0.000000 0.925726
vt 0.100404 0.100404
vt 0.100404 0.899596
vt 0.155050 0.844950
vt 0.155050 0.155050
vt 0.899596 0.899596
vt 0.844950 0.844950
vt 0.899596 0.100404
vt 0.844950 0.155050
vt 0.933030 0.066970
vt 0.066970 0.066970
vt 1.000000 0.000000
vt 0.000000 0.000000
vt 0.933030 0.933030
vt 0.066970 0.933030
vt 1.000000 1.000000
vt 0.000000 1.000000
vn -1.000000 0.000000 0.000000
vn 0.000000 0.000000 -1.000000
vn 1.000000 0.000000 0.000000
vn 0.000000 0.000000 1.000000
vn 0.000000 -1.000000 0.000000
vn 0.000000 1.000000 -0.000000
usemtl None
s off
f 5/1/1 6/2/1 2/3/1 1/4/1
f 6/2/2 7/5/2 3/6/2 2/3/2
f 7/5/3 8/7/3 4/8/3 3/6/3
f 8/7/4 5/1/4 1/4/4 4/8/4
f 1/4/5 2/3/5 3/6/5 4/8/5
f 5/1/6 8/7/6 12/9/6 9/10/6
f 9/10/2 12/9/2 16/11/2 13/12/2
f 8/7/6 7/5/6 11/13/6 12/9/6
f 7/5/6 6/2/6 10/14/6 11/13/6
f 6/2/6 5/1/6 9/10/6 10/14/6
f 12/9/1 11/13/1 15/15/1 16/11/1
f 11/13/4 10/14/4 14/16/4 15/15/4
f 10/14/3 9/10/3 13/12/3 14/16/3
