# Blender v2.73 (sub 0) OBJ File: 'table.blend'
# www.blender.org
mtllib table.mtl
o Cube_Cube.001
v -1.000000 0.996200 -1.000000
v -1.000000 1.352417 -1.000000
v 1.000000 1.352417 -1.000000
v 1.000000 0.996200 -1.000000
v -1.000000 0.996200 1.000000
v -1.000000 1.352417 1.000000
v 1.000000 1.352417 1.000000
v 1.000000 0.996200 1.000000
v -1.000000 1.352417 -0.000000
v 0.000000 1.352417 1.000000
v 1.000000 1.352417 -0.000000
v 0.000000 1.352417 -1.000000
v -1.000000 1.352417 -0.927597
v 0.930410 1.352417 1.000000
v 1.000000 1.352417 -0.927597
v -0.930410 1.352417 -1.000000
v -1.000000 1.352417 0.927597
v -0.930410 1.352417 1.000000
v 1.000000 1.352417 0.927597
v 0.930410 1.352417 -1.000000
v 0.000000 1.352417 -0.927597
v 0.000000 1.352417 0.927597
v -0.930410 1.352417 -0.000000
v 0.930410 1.352417 -0.000000
v 0.930410 1.352417 0.927597
v -0.930410 1.352417 0.927597
v -0.930410 1.352417 -0.927597
v 0.930410 1.352417 -0.927597
v -1.000000 0.996200 0.000000
v 0.000000 1.230219 -0.927597
v 0.000000 1.230219 0.927597
v -0.930410 1.230219 -0.000000
v 0.930410 1.230219 -0.000000
v 0.930410 1.230219 0.927597
v -0.930410 1.230219 0.927597
v -0.930410 1.230219 -0.927597
v 0.930410 1.230219 -0.927597
v 1.000000 0.996200 0.000000
v 0.000000 0.996200 1.000000
v 0.000000 0.996200 -1.000000
v -1.000000 0.996200 0.500000
v 1.000000 0.996200 -0.500000
v -0.500000 0.996200 1.000000
v 0.500000 0.996200 -1.000000
v -1.000000 0.996200 -0.500000
v 1.000000 0.996200 0.500000
v 0.500000 0.996200 1.000000
v -0.500000 0.996200 -1.000000
v -0.000806 0.967101 -0.597296
v 0.000787 0.967101 0.597300
v -0.597308 0.967101 0.000799
v 0.597289 0.967101 -0.000794
v 0.446453 0.967101 0.445338
v -0.445346 0.967101 0.446465
v -0.446472 0.967101 -0.445334
v 0.445327 0.967101 -0.446461
v -1.000000 0.996200 0.750000
v 1.000000 0.996200 -0.750000
v -0.750000 0.996200 1.000000
v 0.750000 0.996200 -1.000000
v -1.000000 0.996200 -0.250000
v 1.000000 0.996200 0.250000
v 0.250000 0.996200 1.000000
v -0.250000 0.996200 -1.000000
v 0.000000 0.996200 -0.750000
v 0.750000 0.996200 0.000000
v -1.000000 0.996200 0.250000
v 1.000000 0.996200 -0.250000
v -0.250000 0.996200 1.000000
v 0.250000 0.996200 -1.000000
v -1.000000 0.996200 -0.750000
v 1.000000 0.996200 0.750000
v 0.750000 0.996200 1.000000
v -0.750000 0.996200 -1.000000
v 0.000000 0.996200 0.750000
v -0.750000 0.996200 0.000000
v 0.561974 0.967101 0.227986
v -0.500000 0.996200 0.750000
v 0.229446 0.967101 0.561376
v -0.750000 0.996200 0.500000
v -0.561383 0.967101 0.229458
v 0.500000 0.996200 0.750000
v 0.750000 0.996200 0.500000
v -0.227993 0.967101 0.561985
v 0.500000 0.996200 -0.750000
v -0.561993 0.967101 -0.227982
v 0.750000 0.996200 -0.500000
v -0.229465 0.967101 -0.561371
v -0.500000 0.996200 -0.750000
v 0.561364 0.967101 -0.229453
v 0.227974 0.967101 -0.561981
v -0.750000 0.996200 -0.500000
v -0.750000 0.996200 -0.250000
v -0.250000 0.996200 -0.750000
v 0.750000 0.996200 -0.250000
v 0.750000 0.996200 -0.750000
v 0.250000 0.996200 0.750000
v 0.750000 0.996200 0.750000
v 0.750000 0.996200 0.250000
v -0.750000 0.996200 0.750000
v -0.250000 0.996200 0.750000
v -0.750000 0.996200 0.250000
v 0.250000 0.996200 -0.750000
v -0.750000 0.996200 -0.750000
v -0.000006 0.000010 0.000004
v -0.823928 0.037512 0.000004
v -0.352575 0.617513 0.000004
v -0.853334 0.000010 0.000004
v -0.295364 0.181872 0.000004
v -0.663024 0.874024 0.000004
v -0.761211 0.037513 -0.315297
v -0.325737 0.617513 -0.134918
v -0.788378 0.000010 -0.326551
v -0.272881 0.181872 -0.113025
v -0.612555 0.874024 -0.253722
v -0.582607 0.037513 -0.582597
v -0.249310 0.617513 -0.249300
v -0.603400 0.000010 -0.603390
v -0.208856 0.181872 -0.208846
v -0.468830 0.874024 -0.468820
v -0.315307 0.037513 -0.761201
v -0.134928 0.617513 -0.325727
v -0.326560 0.000010 -0.788368
v -0.113035 0.181872 -0.272872
v -0.253732 0.874024 -0.612545
v -0.000006 0.037512 -0.823919
v -0.000006 0.617513 -0.352565
v -0.000006 0.000010 -0.853324
v -0.000006 0.181872 -0.295354
v -0.000006 0.874024 -0.663014
v 0.315296 0.037513 -0.761201
v 0.134916 0.617513 -0.325728
v 0.326549 0.000010 -0.788368
v 0.113023 0.181872 -0.272872
v 0.253720 0.874024 -0.612545
v 0.582595 0.037513 -0.582597
v 0.249298 0.617513 -0.249300
v 0.603388 0.000010 -0.603390
v 0.208844 0.181872 -0.208846
v 0.468819 0.874024 -0.468820
v 0.761199 0.037513 -0.315298
v 0.325726 0.617513 -0.134919
v 0.788367 0.000010 -0.326550
v 0.272870 0.181872 -0.113025
v 0.612543 0.874024 -0.253722
v 0.823917 0.037513 0.000004
v 0.352563 0.617513 0.000004
v 0.853322 0.000010 0.000004
v 0.295352 0.181872 0.000004
v 0.663012 0.874024 0.000004
v 0.761199 0.037512 0.315305
v 0.325726 0.617513 0.134926
v 0.788367 0.000010 0.326558
v 0.272870 0.181872 0.113032
v 0.612543 0.874024 0.253730
v 0.582595 0.037512 0.582605
v 0.249298 0.617513 0.249308
v 0.603388 0.000010 0.603398
v 0.208844 0.181872 0.208854
v 0.468819 0.874024 0.468828
v 0.315296 0.037512 0.761209
v 0.134917 0.617513 0.325735
v 0.326548 0.000010 0.788376
v 0.113023 0.181872 0.272879
v 0.253720 0.874024 0.612553
v -0.000006 0.037512 0.823926
v -0.000006 0.617513 0.352573
v -0.000006 0.000010 0.853332
v -0.000006 0.181872 0.295362
v -0.000006 0.874024 0.663022
v -0.315307 0.037512 0.761209
v -0.134928 0.617513 0.325735
v -0.326560 0.000010 0.788376
v -0.113034 0.181872 0.272879
v -0.253732 0.874024 0.612553
v -0.582607 0.037512 0.582605
v -0.249310 0.617513 0.249308
v -0.603400 0.000010 0.603398
v -0.208856 0.181872 0.208854
v -0.468830 0.874024 0.468828
v -0.761211 0.037512 0.315305
v -0.325737 0.617513 0.134927
v -0.788378 0.000010 0.326558
v -0.272881 0.181872 0.113033
v -0.612555 0.874024 0.253730
vt 0.230328 0.929471
vt 0.000000 0.929470
vt 0.000000 0.920420
vt 0.000000 0.804471
vt 0.000000 0.688521
vt 0.000000 0.679471
vt 0.230328 0.679471
vt 0.230328 0.710721
vt 0.230328 0.741971
vt 0.230328 0.773221
vt 0.230328 0.804471
vt 0.230328 0.835721
vt 0.230328 0.866971
vt 0.230328 0.898221
vt 0.564006 0.009050
vt 0.555991 0.009050
vt 0.555991 0.000000
vt 0.564006 0.000000
vt 0.786319 1.000000
vt 0.555991 1.000000
vt 0.555991 0.968750
vt 0.555991 0.937500
vt 0.555991 0.906250
vt 0.555991 0.875000
vt 0.555991 0.843750
vt 0.555991 0.812500
vt 0.555991 0.781250
vt 0.555991 0.750000
vt 0.786319 0.750000
vt 0.786319 0.759051
vt 0.786319 0.875000
vt 0.786319 0.990950
vt 0.757555 0.468750
vt 0.786350 0.468750
vt 0.786350 0.500000
vt 0.757555 0.500000
vt 0.555991 0.741301
vt 0.555991 0.624999
vt 0.555991 0.508698
vt 0.555991 0.500000
vt 0.786319 0.500000
vt 0.786319 0.531250
vt 0.786319 0.562500
vt 0.786319 0.593750
vt 0.786319 0.625000
vt 0.786319 0.656250
vt 0.786319 0.687500
vt 0.786319 0.718750
vt 0.460657 0.679471
vt 0.460657 0.688170
vt 0.460657 0.804471
vt 0.460657 0.920772
vt 0.460657 0.929471
vt 0.778335 0.009050
vt 0.671170 0.009050
vt 0.671170 0.000000
vt 0.778335 0.000000
vt 0.564006 0.240949
vt 0.555991 0.240949
vt 0.555991 0.125000
vt 0.564006 0.125000
vt 0.671170 0.250000
vt 0.564006 0.250000
vt 0.671170 0.240949
vt 0.555991 0.250000
vt 0.786350 0.240949
vt 0.778335 0.240949
vt 0.778335 0.125000
vt 0.786350 0.125000
vt 0.786350 0.250000
vt 0.778335 0.250000
vt 0.786350 0.009050
vt 0.786350 0.000000
vt 0.865363 0.231899
vt 0.865363 0.115949
vt 0.944376 0.115950
vt 0.944376 0.231899
vt 0.460657 0.795772
vt 0.539670 0.679471
vt 0.539670 0.795772
vt 0.786350 0.232602
vt 0.786350 0.116301
vt 0.865363 0.116301
vt 0.865363 0.232603
vt 0.865363 0.000000
vt 0.944376 0.000000
vt 0.460657 0.912073
vt 0.539670 0.912073
vt 0.786350 0.464501
vt 0.786350 0.348552
vt 0.865363 0.348552
vt 0.865363 0.464502
vt 0.642375 0.468750
vt 0.671170 0.468750
vt 0.671170 0.500000
vt 0.642375 0.500000
vt 0.757555 0.343750
vt 0.786350 0.343750
vt 0.786350 0.375000
vt 0.757555 0.375000
vt 0.757555 0.281250
vt 0.786350 0.281250
vt 0.786350 0.312500
vt 0.757555 0.312500
vt 0.584786 0.468750
vt 0.613581 0.468750
vt 0.613581 0.500000
vt 0.584786 0.500000
vt 0.699965 0.468750
vt 0.728760 0.468750
vt 0.728760 0.500000
vt 0.699965 0.500000
vt 0.757555 0.406250
vt 0.786350 0.406250
vt 0.786350 0.437500
vt 0.757555 0.437500
vt 0.555991 0.406250
vt 0.584786 0.406250
vt 0.584786 0.437500
vt 0.555991 0.437500
vt 0.555991 0.375000
vt 0.584786 0.375000
vt 0.555991 0.468750
vt 0.613581 0.250000
vt 0.642375 0.250000
vt 0.642375 0.281250
vt 0.613581 0.281250
vt 0.671170 0.281250
vt 0.555991 0.281250
vt 0.584786 0.281250
vt 0.584786 0.312500
vt 0.555991 0.312500
vt 0.584786 0.250000
vt 0.555991 0.343750
vt 0.584786 0.343750
vt 0.728760 0.250000
vt 0.757555 0.250000
vt 0.728760 0.281250
vt 0.699965 0.250000
vt 0.699965 0.281250
vt 0.486487 0.000000
vt 0.486488 0.026377
vt 0.450173 0.026507
vt 0.448875 0.000135
vt 0.419389 0.026876
vt 0.416993 0.000517
vt 0.277995 0.000514
vt 0.275601 0.026873
vt 0.244810 0.026505
vt 0.246105 0.000133
vt 0.208492 0.026377
vt 0.208491 0.000000
vt 0.172177 0.026507
vt 0.170880 0.000135
vt 0.141394 0.026876
vt 0.138998 0.000517
vt 0.414599 0.026873
vt 0.383808 0.026505
vt 0.385103 0.000133
vt 0.347490 0.026377
vt 0.347489 0.000000
vt 0.311175 0.026507
vt 0.309878 0.000135
vt 0.280391 0.026876
vt 0.136604 0.026873
vt 0.105812 0.026505
vt 0.107107 0.000133
vt 0.069495 0.026377
vt 0.069494 0.000000
vt 0.033180 0.026507
vt 0.031882 0.000135
vt 0.002396 0.026876
vt 0.000000 0.000517
vt 0.555991 0.000514
vt 0.553596 0.026873
vt 0.522805 0.026505
vt 0.524100 0.000133
vt 0.486500 0.128768
vt 0.486504 0.434349
vt 0.470964 0.434405
vt 0.473482 0.128814
vt 0.457791 0.434563
vt 0.462447 0.128947
vt 0.232562 0.128946
vt 0.237226 0.434561
vt 0.224050 0.434404
vt 0.221524 0.128814
vt 0.208509 0.434349
vt 0.208505 0.128768
vt 0.192969 0.434405
vt 0.195487 0.128814
vt 0.179796 0.434563
vt 0.184452 0.128947
vt 0.371560 0.128946
vt 0.376224 0.434561
vt 0.363048 0.434404
vt 0.360522 0.128814
vt 0.347507 0.434349
vt 0.347503 0.128768
vt 0.331967 0.434405
vt 0.334485 0.128814
vt 0.318794 0.434563
vt 0.323449 0.128947
vt 0.093565 0.128946
vt 0.098228 0.434562
vt 0.085052 0.434404
vt 0.082527 0.128814
vt 0.069511 0.434349
vt 0.069507 0.128768
vt 0.053972 0.434405
vt 0.056489 0.128815
vt 0.040799 0.434563
vt 0.045454 0.128947
vt 0.510557 0.128945
vt 0.515221 0.434561
vt 0.502045 0.434404
vt 0.499519 0.128814
vt 0.486500 0.613708
vt 0.486594 0.679158
vt 0.460244 0.679232
vt 0.457277 0.613813
vt 0.435212 0.679470
vt 0.432505 0.614110
vt 0.262509 0.614108
vt 0.259935 0.679470
vt 0.234938 0.679232
vt 0.237731 0.613812
vt 0.208600 0.679158
vt 0.208505 0.613708
vt 0.182250 0.679232
vt 0.179282 0.613813
vt 0.157218 0.679470
vt 0.154510 0.614110
vt 0.401507 0.614107
vt 0.398933 0.679470
vt 0.373936 0.679232
vt 0.376729 0.613812
vt 0.347598 0.679158
vt 0.347504 0.613708
vt 0.321248 0.679232
vt 0.318281 0.613813
vt 0.296216 0.679470
vt 0.293509 0.614110
vt 0.098733 0.613812
vt 0.095939 0.679232
vt 0.069602 0.679158
vt 0.069508 0.613708
vt 0.043251 0.679232
vt 0.040285 0.613813
vt 0.123511 0.614108
vt 0.120937 0.679471
vt 0.515725 0.613812
vt 0.512932 0.679232
vt 0.540503 0.614107
vt 0.537929 0.679470
vt 0.882717 0.837218
vt 0.901891 0.732602
vt 0.937322 0.748529
vt 0.015513 0.614110
vt 0.863542 0.732602
vt 0.018219 0.679471
vt 0.964439 0.777958
vt 0.979114 0.816409
vt 0.979114 0.858028
vt 0.964439 0.896479
vt 0.937322 0.925908
vt 0.901891 0.941835
vt 0.863542 0.941835
vt 0.828112 0.925908
vt 0.800995 0.896479
vt 0.786319 0.858028
vt 0.786319 0.816409
vt 0.800995 0.777958
vt 0.828112 0.748529
vt 0.722465 0.319192
vt 0.735830 0.346317
vt 0.739968 0.374900
vt 0.735901 0.403497
vt 0.722595 0.430666
vt 0.697600 0.445171
vt 0.671263 0.449662
vt 0.644912 0.445247
vt 0.619878 0.430807
vt 0.606513 0.403681
vt 0.602375 0.375099
vt 0.606442 0.346501
vt 0.619748 0.319332
vt 0.644743 0.304828
vt 0.671080 0.300337
vt 0.697431 0.304752
vt 0.893160 0.500000
vt 1.000000 0.500000
vt 1.000000 0.616301
vt 1.000000 0.732602
vt 0.893160 0.732602
vt 0.786319 0.732602
vt 0.786319 0.616301
vn -1.000000 0.000000 0.000000
vn 0.000000 1.000000 0.000000
vn 1.000000 0.000000 0.000000
vn 0.000000 -1.000000 0.000000
vn 0.000000 0.000000 -1.000000
vn 0.000000 0.000000 1.000000
vn -0.777500 0.609600 -0.154600
vn -0.659100 0.609600 -0.440400
vn -0.440400 0.609600 -0.659100
vn -0.154600 0.609600 -0.777500
vn 0.154600 0.609600 -0.777500
vn 0.440400 0.609600 -0.659100
vn 0.659100 0.609600 -0.440400
vn 0.777500 0.609600 -0.154600
vn 0.777500 0.609600 0.154600
vn 0.659100 0.609600 0.440400
vn 0.440400 0.609600 0.659100
vn 0.154600 0.609600 0.777500
vn -0.154600 0.609600 0.777500
vn -0.440400 0.609600 0.659100
vn -0.659100 0.609600 0.440400
vn -0.777500 0.609600 0.154600
vn -0.972700 -0.127700 -0.193500
vn -0.824700 -0.127700 -0.551000
vn -0.551000 -0.127700 -0.824700
vn -0.193500 -0.127700 -0.972700
vn 0.193500 -0.127700 -0.972700
vn 0.551000 -0.127700 -0.824700
vn 0.824700 -0.127700 -0.551000
vn 0.972700 -0.127700 -0.193500
vn 0.972700 -0.127700 0.193500
vn 0.824700 -0.127700 0.551000
vn 0.551000 -0.127700 0.824700
vn 0.193500 -0.127700 0.972700
vn -0.193500 -0.127700 0.972700
vn -0.551000 -0.127700 0.824700
vn -0.824700 -0.127700 0.551000
vn -0.972700 -0.127700 0.193500
vn -0.829300 0.539000 -0.147400
vn -0.775600 0.426800 -0.465000
vn -0.465800 0.427400 -0.774800
vn -0.148500 0.539200 -0.829000
vn 0.147400 0.539000 -0.829300
vn 0.465000 0.426800 -0.775600
vn 0.774800 0.427500 -0.465800
vn 0.828900 0.539300 -0.148500
vn 0.829300 0.539100 0.147400
vn 0.775600 0.426900 0.465000
vn 0.148500 0.539300 0.828900
vn -0.147400 0.539000 0.829300
vn 0.465800 0.427500 0.774800
vn -0.829000 0.539200 0.148500
vn -0.774800 0.427400 0.465800
vn -0.263100 0.963300 -0.052300
vn -0.223100 0.963300 -0.149000
vn -0.149000 0.963300 -0.223100
vn -0.052300 0.963300 -0.263100
vn 0.052300 0.963300 -0.263100
vn 0.149000 0.963300 -0.223100
vn 0.223100 0.963300 -0.149000
vn 0.263100 0.963300 -0.052300
vn 0.263100 0.963300 0.052300
vn 0.223100 0.963300 0.149000
vn 0.149000 0.963300 0.223100
vn 0.052300 0.963300 0.263100
vn -0.052300 0.963300 0.263100
vn -0.149000 0.963300 0.223100
vn -0.223100 0.963300 0.149000
vn -0.263100 0.963300 0.052300
vn -0.631900 -0.764800 -0.125700
vn -0.535700 -0.764800 -0.357900
vn -0.357900 -0.764800 -0.535700
vn -0.125700 -0.764800 -0.631900
vn 0.125700 -0.764800 -0.631900
vn 0.357900 -0.764800 -0.535700
vn 0.535700 -0.764800 -0.357900
vn 0.631900 -0.764800 -0.125700
vn 0.631900 -0.764800 0.125700
vn 0.535700 -0.764800 0.357900
vn 0.357900 -0.764800 0.535700
vn 0.125700 -0.764800 0.631900
vn -0.125700 -0.764800 0.631900
vn -0.357900 -0.764800 0.535700
vn -0.535700 -0.764800 0.357900
vn -0.631900 -0.764800 0.125700
vn -0.465000 0.426800 0.775600
vn -0.047700 -0.997700 0.047700
vn -0.113000 -0.993200 0.028100
vn -0.167400 -0.985800 0.012600
vn -0.167600 -0.985800 -0.012400
vn -0.113200 -0.993200 -0.028000
vn -0.047700 -0.997700 -0.047700
vn -0.028100 -0.993200 -0.113000
vn -0.012600 -0.985800 -0.167400
vn 0.012400 -0.985800 -0.167600
vn 0.028000 -0.993200 -0.113200
vn 0.047700 -0.997700 -0.047700
vn 0.113000 -0.993200 -0.028100
vn 0.167400 -0.985800 -0.012600
vn 0.167500 -0.985800 0.012400
vn 0.113200 -0.993200 0.028000
vn 0.047700 -0.997700 0.047700
vn 0.028100 -0.993200 0.113000
vn 0.012600 -0.985800 0.167400
vn -0.012400 -0.985800 0.167600
vn -0.028000 -0.993200 0.113200
usemtl None
s off
f 5/1/1 6/2/1 17/3/1 9/4/1 13/5/1 2/6/1 1/7/1 71/8/1 45/9/1 61/10/1 29/11/1 67/12/1 41/13/1 57/14/1
f 28/15/2 15/16/2 3/17/2 20/18/2
f 7/19/3 8/20/3 72/21/3 46/22/3 62/23/3 38/24/3 68/25/3 42/26/3 58/27/3 4/28/3 3/29/3 15/30/3 11/31/3 19/32/3
f 104/33/4 71/34/4 1/35/4 74/36/4
f 1/29/5 2/28/5 16/37/5 12/38/5 20/39/5 3/40/5 4/41/5 60/42/5 44/43/5 70/44/5 40/45/5 64/46/5 48/47/5 74/48/5
f 8/7/6 7/49/6 14/50/6 10/51/6 18/52/6 6/53/6 5/1/6 59/14/6 43/13/6 69/12/6 39/11/6 63/10/6 47/9/6 73/8/6
f 27/54/2 21/55/2 12/56/2 16/57/2
f 25/58/2 19/59/2 11/60/2 24/61/2
f 10/62/2 14/63/2 25/58/2 22/64/2
f 14/63/2 7/65/2 19/59/2 25/58/2
f 17/66/2 26/67/2 23/68/2 9/69/2
f 6/70/2 18/71/2 26/67/2 17/66/2
f 18/71/2 10/62/2 22/64/2 26/67/2
f 13/72/2 27/54/2 16/57/2 2/73/2
f 9/69/2 23/68/2 27/54/2 13/72/2
f 21/55/2 28/15/2 20/18/2 12/56/2
f 24/61/2 11/60/2 15/16/2 28/15/2
f 27/74/3 23/75/3 32/76/3 36/77/3
f 22/78/5 25/49/5 34/79/5 31/80/5
f 28/81/6 21/82/6 30/83/6 37/84/6
f 23/75/3 26/85/3 35/86/3 32/76/3
f 26/87/5 22/78/5 31/80/5 35/88/5
f 25/89/1 24/90/1 33/91/1 34/92/1
f 103/93/4 65/94/4 40/95/4 70/96/4
f 102/97/4 67/98/4 29/99/4 76/100/4
f 100/101/4 57/102/4 41/103/4 80/104/4
f 96/105/4 85/106/4 44/107/4 60/108/4
f 94/109/4 89/110/4 48/111/4 64/112/4
f 93/113/4 61/114/4 45/115/4 92/116/4
f 76/100/4 29/99/4 61/114/4 93/113/4
f 65/94/4 94/109/4 64/112/4 40/95/4
f 68/117/4 95/118/4 87/119/4 42/120/4
f 38/121/4 66/122/4 95/118/4 68/117/4
f 58/123/4 96/105/4 60/108/4 4/40/4
f 42/120/4 87/119/4 96/105/4 58/123/4
f 47/124/4 63/125/4 97/126/4 82/127/4
f 63/125/4 39/62/4 75/128/4 97/126/4
f 72/129/4 98/130/4 83/131/4 46/132/4
f 8/65/4 73/133/4 98/130/4 72/129/4
f 73/133/4 47/124/4 82/127/4 98/130/4
f 62/134/4 99/135/4 66/122/4 38/121/4
f 46/132/4 83/131/4 99/135/4 62/134/4
f 43/136/4 59/137/4 100/101/4 78/138/4
f 59/137/4 5/70/4 57/102/4 100/101/4
f 39/62/4 69/139/4 101/140/4 75/128/4
f 69/139/4 43/136/4 78/138/4 101/140/4
f 80/104/4 41/103/4 67/98/4 102/97/4
f 85/106/4 103/93/4 70/96/4 44/107/4
f 89/110/4 104/33/4 74/36/4 48/111/4
f 92/116/4 45/115/4 71/34/4 104/33/4
f 108/141/7 106/142/7 111/143/7 113/144/7
f 113/144/8 111/143/8 116/145/8 118/146/8
f 118/147/9 116/148/9 121/149/9 123/150/9
f 123/150/10 121/149/10 126/151/10 128/152/10
f 128/152/11 126/151/11 131/153/11 133/154/11
f 133/154/12 131/153/12 136/155/12 138/156/12
f 138/146/13 136/157/13 141/158/13 143/159/13
f 143/159/14 141/158/14 146/160/14 148/161/14
f 148/161/15 146/160/15 151/162/15 153/163/15
f 153/163/16 151/162/16 156/164/16 158/147/16
f 158/156/17 156/165/17 161/166/17 163/167/17
f 163/167/18 161/166/18 166/168/18 168/169/18
f 168/169/19 166/168/19 171/170/19 173/171/19
f 173/171/20 171/170/20 176/172/20 178/173/20
f 178/174/21 176/175/21 181/176/21 183/177/21
f 183/177/22 181/176/22 106/142/22 108/141/22
f 109/178/23 107/179/23 112/180/23 114/181/23
f 114/181/24 112/180/24 117/182/24 119/183/24
f 119/184/25 117/185/25 122/186/25 124/187/25
f 124/187/26 122/186/26 127/188/26 129/189/26
f 129/189/27 127/188/27 132/190/27 134/191/27
f 134/191/28 132/190/28 137/192/28 139/193/28
f 139/194/29 137/195/29 142/196/29 144/197/29
f 144/197/30 142/196/30 147/198/30 149/199/30
f 149/199/31 147/198/31 152/200/31 154/201/31
f 154/201/32 152/200/32 157/202/32 159/203/32
f 159/204/33 157/205/33 162/206/33 164/207/33
f 164/207/34 162/206/34 167/208/34 169/209/34
f 169/209/35 167/208/35 172/210/35 174/211/35
f 174/211/36 172/210/36 177/212/36 179/213/36
f 179/214/37 177/215/37 182/216/37 184/217/37
f 184/217/38 182/216/38 107/179/38 109/178/38
f 110/218/39 51/219/39 86/220/39 115/221/39
f 115/221/40 86/220/40 55/222/40 120/223/40
f 120/224/41 55/225/41 88/226/41 125/227/41
f 125/227/42 88/226/42 49/228/42 130/229/42
f 130/229/43 49/228/43 91/230/43 135/231/43
f 135/231/44 91/230/44 56/232/44 140/233/44
f 140/234/45 56/235/45 90/236/45 145/237/45
f 145/237/46 90/236/46 52/238/46 150/239/46
f 150/239/47 52/238/47 77/240/47 155/241/47
f 155/241/48 77/240/48 53/242/48 160/243/48
f 165/244/49 79/245/49 50/246/49 170/247/49
f 170/247/50 50/246/50 84/248/50 175/249/50
f 160/250/51 53/251/51 79/245/51 165/244/51
f 185/252/52 81/253/52 51/219/52 110/218/52
f 180/254/53 54/255/53 81/253/53 185/252/53
f 105/256/4 113/257/4 118/258/4
f 106/142/54 109/178/54 114/181/54 111/143/54
f 111/143/55 114/181/55 119/183/55 116/145/55
f 116/148/56 119/184/56 124/187/56 121/149/56
f 121/149/57 124/187/57 129/189/57 126/151/57
f 126/151/58 129/189/58 134/191/58 131/153/58
f 131/153/59 134/191/59 139/193/59 136/155/59
f 136/157/60 139/194/60 144/197/60 141/158/60
f 141/158/61 144/197/61 149/199/61 146/160/61
f 146/160/62 149/199/62 154/201/62 151/162/62
f 151/162/63 154/201/63 159/203/63 156/164/63
f 156/165/64 159/204/64 164/207/64 161/166/64
f 161/166/65 164/207/65 169/209/65 166/168/65
f 166/168/66 169/209/66 174/211/66 171/170/66
f 171/170/67 174/211/67 179/213/67 176/172/67
f 176/175/68 179/214/68 184/217/68 181/176/68
f 181/176/69 184/217/69 109/178/69 106/142/69
f 107/179/70 110/218/70 115/221/70 112/180/70
f 112/180/71 115/221/71 120/223/71 117/182/71
f 117/185/72 120/224/72 125/227/72 122/186/72
f 122/186/73 125/227/73 130/229/73 127/188/73
f 127/188/74 130/229/74 135/231/74 132/190/74
f 132/190/75 135/231/75 140/233/75 137/192/75
f 137/195/76 140/234/76 145/237/76 142/196/76
f 142/196/77 145/237/77 150/239/77 147/198/77
f 147/198/78 150/239/78 155/241/78 152/200/78
f 152/200/79 155/241/79 160/243/79 157/202/79
f 157/205/80 160/250/80 165/244/80 162/206/80
f 162/206/81 165/244/81 170/247/81 167/208/81
f 167/208/82 170/247/82 175/249/82 172/210/82
f 172/210/83 175/249/83 180/259/83 177/212/83
f 177/215/84 180/254/84 185/252/84 182/216/84
f 182/216/85 185/252/85 110/218/85 107/179/85
f 105/256/4 108/260/4 113/257/4
f 175/249/86 84/248/86 54/261/86 180/259/86
f 105/256/4 118/258/4 123/262/4
f 105/256/4 123/262/4 128/263/4
f 105/256/4 128/263/4 133/264/4
f 105/256/4 133/264/4 138/265/4
f 105/256/4 138/265/4 143/266/4
f 105/256/4 143/266/4 148/267/4
f 105/256/4 148/267/4 153/268/4
f 105/256/4 153/268/4 158/269/4
f 105/256/4 158/269/4 163/270/4
f 105/256/4 163/270/4 168/271/4
f 105/256/4 168/271/4 173/272/4
f 105/256/4 173/272/4 178/273/4
f 105/256/4 178/273/4 183/274/4
f 105/256/4 183/274/4 108/260/4
f 100/101/87 80/104/87 54/275/87 78/138/87
f 81/276/88 54/275/88 80/104/88 102/97/88
f 51/277/89 81/276/89 102/97/89 76/100/89
f 86/278/90 51/277/90 76/100/90 93/113/90
f 55/279/91 86/278/91 93/113/91 92/116/91
f 92/116/92 104/33/92 89/110/92 55/279/92
f 88/280/93 55/279/93 89/110/93 94/109/93
f 49/281/94 88/280/94 94/109/94 65/94/94
f 91/282/95 49/281/95 65/94/95 103/93/95
f 56/283/96 91/282/96 103/93/96 85/106/96
f 96/105/97 87/119/97 56/283/97 85/106/97
f 56/283/98 87/119/98 95/118/98 90/284/98
f 90/284/99 95/118/99 66/122/99 52/285/99
f 52/285/100 66/122/100 99/135/100 77/286/100
f 77/286/101 99/135/101 83/131/101 53/287/101
f 83/131/102 98/130/102 82/127/102 53/287/102
f 53/287/103 82/127/103 97/126/103 79/288/103
f 79/288/104 97/126/104 75/128/104 50/289/104
f 50/289/105 75/128/105 101/140/105 84/290/105
f 84/290/106 101/140/106 78/138/106 54/275/106
f 24/90/1 28/81/1 37/84/1 33/91/1
f 21/82/6 27/73/6 36/85/6 30/83/6
f 33/291/2 37/292/2 30/293/2 36/294/2 32/295/2 35/296/2 31/297/2 34/41/2
