# Blender v2.73 (sub 0) OBJ File: 'box.blend'
# www.blender.org
mtllib tile.mtl
o Cube.001
v -0.158074 -0.130728 0.242583
v -0.158074 -0.130728 -0.242583
v 0.158074 -0.130728 -0.242583
v 0.158074 -0.130728 0.242583
v -0.158074 0.130728 0.242583
v -0.158074 0.130728 -0.242583
v 0.158074 0.130728 -0.242583
v 0.158074 0.130728 0.242583
v -0.177992 0.104182 0.193323
v -0.177992 0.104182 -0.193323
v -0.177992 -0.104182 -0.193323
v -0.177992 -0.104182 0.193323
v -0.125975 0.104182 -0.273149
v 0.125975 0.104182 -0.273149
v 0.125975 -0.104182 -0.273149
v -0.125975 -0.104182 -0.273149
v 0.177992 0.104182 -0.193323
v 0.177992 0.104182 0.193323
v 0.177992 -0.104182 0.193323
v 0.177992 -0.104182 -0.193323
v 0.125975 0.104182 0.273149
v -0.125975 0.104182 0.273149
v -0.125975 -0.104182 0.273149
v 0.125975 -0.104182 0.273149
v -0.125975 -0.147201 0.193323
v -0.125975 -0.147201 -0.193323
v 0.125975 -0.147201 -0.193323
v 0.125975 -0.147201 0.193323
v 0.125975 0.147201 0.193323
v 0.125975 0.147201 -0.193323
v -0.125975 0.147201 -0.193323
v -0.125975 0.147201 0.193323
vt 0.299489 0.033844
vt 0.299490 0.299489
vt 0.033844 0.299490
vt 0.033844 0.033844
vt 0.333333 0.333333
vt 0.333333 0.000000
vt 0.000000 0.333333
vt 0.000000 0.000000
vt 0.632823 0.632823
vt 0.367177 0.632823
vt 0.367177 0.367177
vt 0.632823 0.367177
vt 0.333333 0.666667
vt 0.666667 0.666667
vt 0.666667 0.333333
vt 0.299489 0.367177
vt 0.299489 0.632823
vt 0.033844 0.632823
vt 0.033844 0.367177
vt 0.000000 0.666667
vt 0.700511 0.033844
vt 0.966156 0.033844
vt 0.966156 0.299489
vt 0.700511 0.299489
vt 1.000000 0.000000
vt 0.666667 0.000000
vt 1.000000 0.333333
vt 0.632823 0.299489
vt 0.367177 0.299489
vt 0.367177 0.033844
vt 0.632823 0.033844
vt 0.033844 0.966156
vt 0.033844 0.700511
vt 0.299489 0.700511
vt 0.299489 0.966156
vt 0.000000 1.000000
vt 0.333333 1.000000
vn -0.954900 0.265800 0.132500
vn -0.954900 0.265800 -0.132500
vn -0.954900 -0.265800 -0.132500
vn -0.954900 -0.265800 0.132500
vn -0.604200 0.619300 -0.501400
vn -0.604200 0.619300 0.501400
vn -0.604200 -0.619300 -0.501400
vn -0.604200 -0.619300 0.501400
vn -0.286200 0.332800 -0.898500
vn 0.286200 0.332800 -0.898500
vn 0.286200 -0.332800 -0.898500
vn -0.286200 -0.332800 -0.898500
vn 0.604200 0.619300 -0.501400
vn 0.604200 -0.619300 -0.501400
vn 0.954900 0.265800 -0.132500
vn 0.954900 0.265800 0.132500
vn 0.954900 -0.265800 0.132500
vn 0.954900 -0.265800 -0.132500
vn 0.604200 0.619300 0.501400
vn 0.604200 -0.619300 0.501400
vn 0.286200 0.332800 0.898500
vn -0.286200 0.332800 0.898500
vn -0.286200 -0.332800 0.898500
vn 0.286200 -0.332800 0.898500
vn -0.192000 -0.974900 0.112900
vn -0.192000 -0.974900 -0.112900
vn 0.192000 -0.974900 -0.112900
vn 0.192000 -0.974900 0.112900
vn 0.192000 0.974900 0.112900
vn 0.192000 0.974900 -0.112900
vn -0.192000 0.974900 -0.112900
vn -0.192000 0.974900 0.112900
usemtl None
s 1
f 9/1/1 10/2/2 11/3/3 12/4/4
f 6/5/5 10/2/2 9/1/1 5/6/6
f 2/7/7 11/3/3 10/2/2 6/5/5
f 1/8/8 12/4/4 11/3/3 2/7/7
f 5/6/6 9/1/1 12/4/4 1/8/8
f 13/9/9 14/10/10 15/11/11 16/12/12
f 7/13/13 14/10/10 13/9/9 6/14/5
f 3/5/14 15/11/11 14/10/10 7/13/13
f 2/15/7 16/12/12 15/11/11 3/5/14
f 6/14/5 13/9/9 16/12/12 2/15/7
f 17/16/15 18/17/16 19/18/17 20/19/18
f 8/13/19 18/17/16 17/16/15 7/5/13
f 4/20/20 19/18/17 18/17/16 8/13/19
f 3/7/14 20/19/18 19/18/17 4/20/20
f 7/5/13 17/16/15 20/19/18 3/7/14
f 21/21/21 22/22/22 23/23/23 24/24/24
f 5/25/6 22/22/22 21/21/21 8/26/19
f 1/27/8 23/23/23 22/22/22 5/25/6
f 4/15/20 24/24/24 23/23/23 1/27/8
f 8/26/19 21/21/21 24/24/24 4/15/20
f 25/28/25 26/29/26 27/30/27 28/31/28
f 2/5/7 26/29/26 25/28/25 1/15/8
f 3/6/14 27/30/27 26/29/26 2/5/7
f 4/26/20 28/31/28 27/30/27 3/6/14
f 1/15/8 25/28/25 28/31/28 4/26/20
f 29/32/29 30/33/30 31/34/31 32/35/32
f 7/20/13 30/33/30 29/32/29 8/36/19
f 6/13/5 31/34/31 30/33/30 7/20/13
f 5/37/6 32/35/32 31/34/31 6/13/5
f 8/36/19 29/32/29 32/35/32 5/37/6
