# Blender v2.78 (sub 0) OBJ File: 'tile.blend'
# www.blender.org
mtllib tile.mtl
o Top_Cube.001
v -0.175507 0.116251 0.211452
v -0.175507 0.116251 -0.211452
v -0.163878 0.116251 -0.226458
v 0.163878 0.116251 -0.226458
v 0.175507 0.116251 -0.211452
v 0.175507 0.116251 0.211452
v 0.163878 0.116251 0.226458
v -0.163878 0.116251 0.226458
v 0.158355 0.129458 0.204326
v 0.158355 0.129458 -0.204326
v -0.158355 0.129458 -0.204326
v -0.158355 0.129458 0.204326
v -0.175507 -0.061479 -0.211452
v -0.175507 -0.061479 0.211452
v 0.163878 -0.061479 -0.226458
v -0.163878 -0.061479 -0.226458
v 0.175507 -0.061479 0.211452
v 0.175507 -0.061479 -0.211452
v -0.163878 -0.061479 0.226458
v 0.163878 -0.061479 0.226458
vt 0.9000 -0.0000
vt 0.9000 1.0000
vt 0.0000 1.0000
vt 0.0000 0.0000
vt 0.0166 0.0186
vt 0.0166 0.0186
vt 0.0166 0.0186
vt 0.0166 0.0186
vt 0.0166 0.0186
vt 0.0166 0.0186
vt 0.0166 0.0186
vt 0.0166 0.0186
vt 0.0166 0.0186
vt 0.0166 0.0186
vt 0.0166 0.0186
vt 0.0166 0.0186
vt 0.0166 0.0186
vt 0.0166 0.0186
vt 0.0166 0.0186
vt 0.0166 0.0186
vt 0.0166 0.0186
vt 0.0166 0.0186
vt 0.0166 0.0186
vt 0.0166 0.0186
vn 0.0000 1.0000 0.0000
vn 0.4689 0.8050 0.3634
vn 0.4689 0.8050 -0.3634
vn -0.4689 0.8050 -0.3634
vn -0.4689 0.8050 0.3634
vn -0.0000 0.8587 0.5124
vn 0.6101 0.7923 0.0000
vn 0.0000 0.8587 -0.5124
vn -0.6101 0.7923 -0.0000
vn 0.7904 0.0000 0.6126
vn 0.7904 0.0000 -0.6126
vn -0.7904 0.0000 -0.6126
vn -0.0000 0.0000 1.0000
vn 1.0000 0.0000 0.0000
vn 0.0000 0.0000 -1.0000
vn -0.7904 0.0000 0.6126
vn -1.0000 0.0000 -0.0000
usemtl None
s off
f 9/1/1 10/2/1 11/3/1 12/4/1
f 9/5/2 7/6/2 6/7/2
f 10/8/3 5/9/3 4/10/3
f 11/11/4 3/12/4 2/13/4
f 12/14/5 1/15/5 8/16/5
f 8/16/6 7/6/6 9/5/6 12/14/6
f 6/7/7 5/9/7 10/8/7 9/5/7
f 4/10/8 3/12/8 11/11/8 10/8/8
f 2/13/9 1/15/9 12/14/9 11/11/9
f 17/17/10 6/7/10 7/6/10 20/18/10
f 15/19/11 4/10/11 5/9/11 18/20/11
f 13/21/12 2/13/12 3/12/12 16/22/12
f 7/6/13 8/16/13 19/23/13 20/18/13
f 5/9/14 6/7/14 17/17/14 18/20/14
f 3/12/15 4/10/15 15/19/15 16/22/15
f 1/15/16 14/24/16 19/23/16 8/16/16
f 1/15/17 2/13/17 13/21/17 14/24/17
o Bottom_Cube
v -0.175507 -0.119121 -0.211452
v -0.175507 -0.119121 0.211452
v 0.163878 -0.119121 -0.226458
v -0.163878 -0.119121 -0.226458
v 0.175507 -0.119121 0.211452
v 0.175507 -0.119121 -0.211452
v -0.163878 -0.119121 0.226458
v 0.163878 -0.119121 0.226458
v -0.163878 -0.126038 0.211452
v -0.163878 -0.126038 -0.211452
v 0.163878 -0.126038 -0.211452
v 0.163878 -0.126038 0.211452
v -0.175507 -0.061479 -0.211452
v -0.175507 -0.061479 0.211452
v 0.163878 -0.061479 -0.226458
v -0.163878 -0.061479 -0.226458
v 0.175507 -0.061479 0.211452
v 0.175507 -0.061479 -0.211452
v -0.163878 -0.061479 0.226458
v 0.163878 -0.061479 0.226458
vt 0.9892 0.9892
vt 0.9892 0.9892
vt 0.9892 0.9892
vt 0.9892 0.9892
vt 0.9892 0.9892
vt 0.9892 0.9892
vt 0.9892 0.9892
vt 0.9892 0.9892
vt 0.9892 0.9892
vt 0.9892 0.9892
vt 0.9892 0.9892
vt 0.9892 0.9892
vt 0.9892 0.9892
vt 0.9892 0.9892
vt 0.9892 0.9892
vt 0.9892 0.9892
vt 0.9892 0.9892
vt 0.9892 0.9892
vt 0.9892 0.9892
vt 0.9892 0.9892
vn -1.0000 0.0000 -0.0000
vn 0.0000 0.0000 -1.0000
vn 1.0000 0.0000 0.0000
vn -0.0000 0.0000 1.0000
vn 0.0000 -1.0000 -0.0000
vn -0.7904 0.0000 0.6126
vn 0.4752 -0.7991 0.3683
vn 0.5112 -0.8595 0.0000
vn 0.4752 -0.7991 -0.3683
vn 0.0000 -0.9082 -0.4186
vn -0.4752 -0.7991 -0.3683
vn -0.5112 -0.8595 -0.0000
vn -0.4752 -0.7991 0.3683
vn -0.0000 -0.9082 0.4186
vn 0.7904 0.0000 0.6126
vn 0.7904 0.0000 -0.6126
vn -0.7904 0.0000 -0.6126
usemtl None
s off
f 34/25/18 33/26/18 21/27/18 22/28/18
f 36/29/19 35/30/19 23/31/19 24/32/19
f 38/33/20 37/34/20 25/35/20 26/36/20
f 40/37/21 39/38/21 27/39/21 28/40/21
f 29/41/22 30/42/22 31/43/22 32/44/22
f 34/25/23 22/28/23 27/39/23 39/38/23
f 28/40/24 32/44/24 25/35/24
f 26/36/25 25/35/25 32/44/25 31/43/25
f 26/36/26 31/43/26 23/31/26
f 24/32/27 23/31/27 31/43/27 30/42/27
f 24/32/28 30/42/28 21/27/28
f 22/28/29 21/27/29 30/42/29 29/41/29
f 27/39/30 22/28/30 29/41/30
f 28/40/31 27/39/31 29/41/31 32/44/31
f 25/35/32 37/34/32 40/37/32 28/40/32
f 23/31/33 35/30/33 38/33/33 26/36/33
f 21/27/34 33/26/34 36/29/34 24/32/34
