# Blender v2.73 (sub 0) OBJ File: 'wind_indicator.blend'
# www.blender.org
mtllib wind_indicator.mtl
o Cube.001
v 0.399969 0.013726 0.399969
v 0.399969 0.013726 -0.399969
v -0.399969 0.013726 -0.399969
v -0.399969 0.013726 0.399969
v 0.399969 -0.013726 0.399969
v 0.399969 -0.013726 -0.399969
v -0.399969 -0.013726 -0.399969
v -0.399969 -0.013726 0.399969
v 0.510474 -0.013726 0.399969
v 0.510475 -0.013726 -0.399969
v 0.510475 0.013726 -0.399969
v 0.510474 0.013726 0.399969
v -0.510474 -0.013726 -0.399969
v -0.510475 -0.013726 0.399969
v -0.510475 0.013726 0.399969
v -0.510474 0.013726 -0.399969
vt 0.984078 0.985141
vt 0.992889 0.985141
vt 0.992889 0.976331
vt 0.984078 0.976331
vt 0.975268 0.985141
vt 0.975268 0.976331
vt 1.000000 0.000000
vt 1.000000 1.000000
vt 0.000000 1.000000
vt 0.000000 0.000000
vt 0.984078 0.993952
vt 0.975268 0.993952
vt 0.982861 0.985141
vt 0.982861 0.976331
vt 0.982861 0.993952
vt 0.985296 0.985141
vt 0.985296 0.993952
vt 0.985296 0.976331
vn 0.000000 0.000000 -1.000000
vn -0.000000 0.000000 1.000000
vn 0.000000 1.000000 -0.000000
vn -0.000000 -1.000000 0.000000
vn 1.000000 0.000000 0.000000
vn -1.000000 0.000000 -0.000000
usemtl Material
s off
f 6/1/1 7/2/1 3/3/1 2/4/1
f 8/1/2 5/5/2 1/6/2 4/4/2
f 1/7/3 2/8/3 3/9/3 4/10/3
f 8/1/4 7/11/4 6/12/4 5/5/4
f 9/1/5 10/2/5 11/3/5 12/4/5
f 6/1/4 10/13/4 9/14/4 5/4/4
f 2/1/1 11/13/1 10/15/1 6/11/1
f 1/1/3 12/13/3 11/15/3 2/11/3
f 5/1/2 9/13/2 12/14/2 1/4/2
f 13/1/6 14/5/6 15/6/6 16/4/6
f 8/1/4 14/16/4 13/17/4 7/11/4
f 4/1/2 15/16/2 14/17/2 8/11/2
f 3/1/3 16/16/3 15/18/3 4/4/3
f 7/1/1 13/16/1 16/18/1 3/4/1
