<?xml version="1.0" encoding="UTF-8" standalone="no"?>
<!-- Created with Inkscape (http://www.inkscape.org/) -->

<svg
   xmlns:dc="http://purl.org/dc/elements/1.1/"
   xmlns:cc="http://creativecommons.org/ns#"
   xmlns:rdf="http://www.w3.org/1999/02/22-rdf-syntax-ns#"
   xmlns:svg="http://www.w3.org/2000/svg"
   xmlns="http://www.w3.org/2000/svg"
   xmlns:xlink="http://www.w3.org/1999/xlink"
   xmlns:sodipodi="http://sodipodi.sourceforge.net/DTD/sodipodi-0.dtd"
   xmlns:inkscape="http://www.inkscape.org/namespaces/inkscape"
   width="210mm"
   height="297mm"
   viewBox="0 0 744.09448819 1052.3622047"
   id="svg4084"
   version="1.1"
   inkscape:version="0.91 r13725"
   inkscape:export-filename="C:\Users\Fluffy\Desktop\Button.png"
   inkscape:export-xdpi="180"
   inkscape:export-ydpi="180"
   sodipodi:docname="MenuButton.svg">
  <defs
     id="defs4086">
    <linearGradient
       inkscape:collect="always"
       id="linearGradient6537">
      <stop
         style="stop-color:#aa0000;stop-opacity:1;"
         offset="0"
         id="stop6539" />
      <stop
         style="stop-color:#ffd5d5;stop-opacity:1"
         offset="1"
         id="stop6541" />
    </linearGradient>
    <linearGradient
       id="linearGradient26287">
      <stop
         style="stop-color:#624229;stop-opacity:1;"
         offset="0"
         id="stop26289" />
      <stop
         style="stop-color:#e6b38b;stop-opacity:1;"
         offset="1"
         id="stop26291" />
    </linearGradient>
    <linearGradient
       inkscape:collect="always"
       xlink:href="#linearGradient6537"
       id="linearGradient6543"
       x1="240.30856"
       y1="502.2377"
       x2="240.2139"
       y2="476.88058"
       gradientUnits="userSpaceOnUse" />
  </defs>
  <sodipodi:namedview
     id="base"
     pagecolor="#ffffff"
     bordercolor="#666666"
     borderopacity="1.0"
     inkscape:pageopacity="0.0"
     inkscape:pageshadow="2"
     inkscape:zoom="5.6"
     inkscape:cx="247.20923"
     inkscape:cy="532.16524"
     inkscape:document-units="px"
     inkscape:current-layer="layer1"
     showgrid="false"
     inkscape:snap-others="true"
     inkscape:snap-nodes="true"
     inkscape:snap-global="true"
     inkscape:window-width="1920"
     inkscape:window-height="1017"
     inkscape:window-x="3832"
     inkscape:window-y="-8"
     inkscape:window-maximized="1" />
  <metadata
     id="metadata4089">
    <rdf:RDF>
      <cc:Work
         rdf:about="">
        <dc:format>image/svg+xml</dc:format>
        <dc:type
           rdf:resource="http://purl.org/dc/dcmitype/StillImage" />
        <dc:title></dc:title>
      </cc:Work>
    </rdf:RDF>
  </metadata>
  <g
     inkscape:label="Layer 1"
     inkscape:groupmode="layer"
     id="layer1">
    <rect
       style="fill:url(#linearGradient6543);fill-opacity:1;stroke:none;fill-rule:nonzero"
       id="rect26263"
       width="227.40533"
       height="42.594856"
       x="125.66571"
       y="483.61887"
       inkscape:export-filename="C:\Users\seldon\Pictures\ConceptArt\buttonBorder.png"
       inkscape:export-xdpi="180"
       inkscape:export-ydpi="180" />
    <path
       style="font-style:normal;font-variant:normal;font-weight:normal;font-stretch:normal;font-size:65.77478027px;line-height:125%;font-family:'Border Corners';-inkscape-font-specification:'Border Corners';letter-spacing:0px;word-spacing:0px;fill:#804e26;fill-opacity:1;stroke:#2f1c00;stroke-width:0.11403406;stroke-opacity:1"
       id="path12077"
       d="m 342.37958,481.96942 0,1.35418 c -70.15769,0 -135.89303,0 -206.05074,0 l 0,-1.28288 -4.3476,0 0,1.31141 -6.57124,0 0,6.62819 -1.33985,0 0,4.31903 1.33985,0 c 0,45.28083 0,-24.18846 0,21.09237 l -1.33985,0 0,4.31903 1.33985,0 0,6.62824 6.57124,0 0,1.31141 4.3476,0 0,-1.28288 c 70.15771,0 135.89305,0 206.05074,0 l 0,1.35413 4.31903,0 0,-1.35413 6.6282,0 0,-6.57124 1.3257,0 0,-4.34751 -1.29713,0 0,-4.81943 0,-16.38699 1.29713,0 0,-4.34756 -1.3257,0 0,-6.57119 -6.6282,0 0,-1.35418 z m 0.92657,0.89804 2.49447,0 0,0.45614 -2.49447,0 z m -210.42692,0.0713 2.55152,0 0,0.38485 -2.55152,0 z m -7.34094,0.49886 6.44295,0 0,0.78403 -5.67321,0 0,5.75868 -0.76974,0 z m 7.34094,0 2.55152,0 0,0.34213 -1.61067,0 -0.0424,0.19954 0,0.0998 0.0424,0.14259 -0.94085,0 z m 3.44961,0 c 70.15771,0 135.89305,0 206.05074,0 l 0,0.24236 -1.76754,0 -0.0286,0.1853 0,0.14254 0.0286,0.21383 c -67.85535,0 -133.64734,0 -202.47298,0 l 0,-0.4419 -1.81022,0 z m 206.97731,0 2.49447,0 0,0.78403 -0.89804,0 0,-0.54167 -1.59643,0 z m 3.39246,0 6.54267,0 0,6.45718 -0.78398,0 0,-5.67315 -5.75869,0 z m -220.26228,0.91228 5.54491,0 0,2.12391 -3.50653,0 0,3.50652 -2.03838,0 z m 6.47142,0 0.86951,0 0,2.18092 2.58001,0 0,-1.85304 0.8838,0 0,3.39247 c 69.52565,0.11576 134.91773,-0.0998 204.26896,-0.0998 l 0,-3.39251 0.86955,0 0,1.86732 2.523,0 0,-2.09539 0.86952,0 0,2.93637 3.53504,0 0,3.53505 3.03615,0 0,0.86951 -2.19516,0 0,2.58005 1.86732,0 0,0.86951 -3.39251,0 c 0,44.72013 0,-25.30978 0,19.41035 l 3.39251,0 0,0.86951 -1.86732,0 0,2.58001 2.19516,0 0,0.86951 -3.03615,0 0,3.5351 -3.53504,0 0,2.93637 -0.86952,0 0,-2.09539 -2.523,0 0,1.86732 -0.86955,0 0,-3.39251 c -69.5623,-0.28821 -134.70566,-0.10576 -204.26896,-0.1 l 0,3.39251 -0.8838,0 0,-1.85303 -2.58001,0 0,2.18092 -0.86951,0 0,-3.02191 -3.535,0 0,-3.54933 -2.93642,0 0,-0.86951 2.09539,0 0,-2.50877 -1.85308,0 0,-0.86946 3.37832,0 c 0,-44.70114 0,25.34775 0,-19.35339 l -3.37832,0 0,-0.86951 1.85308,0 0,-2.50872 -2.09539,0 0,-0.86951 2.93642,0 0,-3.54933 3.535,0 z m 5.23131,0 c 68.95563,0 133.4889,0 202.4445,0 l 0,2.72259 c -68.79542,0.16843 -133.50605,0.0855 -202.4445,0.0855 z m 208.55955,0 5.64468,0 0,5.5449 -2.13811,0 0,-3.50652 -3.50657,0 z m -220.1197,0.11405 0,1.8958 1.8958,0 0,-1.8958 z m 223.75452,0.0286 0,1.8958 1.88161,0 0,-1.8958 z m -223.62627,0.0855 1.58225,0 0,1.59644 -1.58225,0 z m 216.59899,0 0.6984,0 0,0.96928 -0.6984,0 z m 7.19835,0.0429 1.59648,0 0,1.58219 -1.59648,0 z m -215.81496,0.057 0.74121,0 0,0.95504 -0.74121,0 z m 217.76776,6.11506 0.78398,0 0,2.55152 -0.32784,0 0,-1.62501 -0.21378,-0.0286 -0.0855,0 -0.15682,0.0286 z m 0.89808,0 0.39909,0 0,2.55152 -0.39909,0 z m -228.38724,0.0855 0.44186,0 0,2.49452 -0.44186,0 z m 0.57015,0 0.76974,0 0,0.91228 -0.54162,0 0,1.58224 -0.22812,0 z m 225.50788,1.7105 0.96928,0 0,0.75549 -0.96928,0 z m -224.36753,0.0998 0.95504,0 0,0.68421 -0.95504,0 z m 226.2348,1.55372 0.32784,0 0,12.35841 0,4.02853 0,0.0998 0,3.83437 0,0.0998 0,1.3827 0,-0.59722 -0.32784,0 0,-1.79603 -0.45614,0 0,2.39325 0,-1.3827 0,-0.0998 0,-3.83437 0,-0.0998 0,-4.02853 0,-10.56238 0.45614,0 z m -227.37515,0.057 0.22812,0 0,1.78178 0.18526,0.0286 0.15682,0 0.19954,-0.0286 c 0,44.09298 0,-26.56418 0,17.5288 l -0.19954,-0.0286 -0.15682,0 -0.18526,0.0286 0,1.78178 -0.22812,0 c 0,-45.28083 0,24.18847 0,-21.09236 z m 223.98268,1.73902 2.82232,0 0,18.62487 0,-1.01055 -2.82232,0 c 0,-44.12145 0,26.50713 0,-17.61432 z m -223.08464,0.0712 2.72259,0 c 0,44.07399 0,-26.60215 0,17.47184 l -2.72259,0 c 0,-44.07399 0,26.60215 0,-17.47184 z m -1.46819,20.20862 0.44186,0 0,2.49452 -0.44186,0 z m 0.57015,0 0.22812,0 0,1.58224 0.54162,0 0,0.91228 -0.76974,0 z m 1.14035,0 0.95504,0 0,0.68421 -0.95504,0 z m 224.36753,0.0286 0.96928,0 0,0.75545 -0.96928,0 z m 1.86727,0 0.32784,0 0,2.55148 -0.78398,0 0,-0.92651 0.15682,0.0286 0.0855,0 0.21378,-0.0286 z m 0.44194,0 0.39909,0 0,2.55148 -0.39909,0 z m -227.81709,3.36394 0.76974,0 0,5.75878 5.67321,0 0,0.78394 -6.44295,0 z m 0.89804,0 2.03838,0 0,3.50657 3.50653,0 0,2.12391 -5.54491,0 z m 223.76885,0.0855 2.13811,0 0,5.54495 -5.64468,0 0,-2.03838 3.50657,0 z m 2.25212,0 0.78398,0 0,6.45719 -6.54267,0 0,-0.78394 5.75869,0 z m -214.31824,2.73683 c 68.95483,0.20503 133.49037,-0.32051 202.4445,0.0855 l 0,2.72259 c -68.9556,0 -133.48887,0 -202.4445,0 z m 212.19437,0.76974 0,1.8958 1.88161,0 0,-1.8958 z m -223.75452,0.0286 0,1.89585 1.8958,0 0,-1.89585 z m 223.92559,0.15683 1.59648,0 0,1.5822 -1.59648,0 z m -223.79734,0.0286 1.58225,0 0,1.59653 -1.58225,0 z m 7.98238,0.54172 0.74121,0 0,0.95499 -0.74121,0 z m 208.61661,0.0855 0.6984,0 0,0.96933 -0.6984,0 z m -210.42692,1.32565 0.89845,0.0415 0.0424,0.40051 1.61067,0 0,0.34208 -2.55152,0 z m 5.25983,0 c 68.96512,0 133.50788,0 202.47298,0 l -0.0286,0.21378 0,0.14259 0.0286,0.18525 1.76754,0 0,0.24236 c -70.15769,0 -135.89303,0 -206.05074,0 l 0,-0.34208 1.81022,0 z m 206.76352,0 0.89804,0 0,0.78398 -2.49447,0 0,-0.24236 1.59643,0 z m -212.02335,0.89804 2.55152,0 0,0.38484 -2.55152,0 z m 210.42692,0 2.49447,0 0,0.45609 -2.49447,0 z"
       inkscape:connector-curvature="0"
       sodipodi:nodetypes="cccccccccccccccccccccccccccccccccccccccccccccccccccccccccccccccccccccccccccccccccccccccccccccccccccccccccccccccccccccccccccccccccccccccccccccccccccccccccccccccccccccccccccccccccccccccccccccccccccccccccccccccccccccccccccccccccccccccccccccccccccccccccccccccccccccccccccccccccccccccccccccccccccccccccccccccccccccccccccccccccccccccccccccccccccccccccccccccccccccccccccccccccccccccccccccccccccccccccccccccccccccccccccccccccccccc"
       inkscape:export-filename="C:\Users\seldon\Pictures\ConceptArt\buttonBorder.png"
       inkscape:export-xdpi="180"
       inkscape:export-ydpi="180" />
    <path
       style="font-style:normal;font-variant:normal;font-weight:normal;font-stretch:normal;font-size:65.77478027px;line-height:125%;font-family:'Border Corners';-inkscape-font-specification:'Border Corners';letter-spacing:0px;word-spacing:0px;fill:none;stroke:#ff9d0e;stroke-width:0.11365167;stroke-opacity:1"
       id="path12077-3-9"
       d="m 342.25967,482.14265 0,1.3461 c -70.10614,0 -135.79316,0 -205.89931,0 l 0,-1.27523 -4.34441,0 0,1.30358 -6.56641,0 0,6.58867 -1.33886,0 0,4.29326 1.33886,0 c 0,45.01074 0,-24.04418 0,20.96655 l -1.33886,0 0,4.29327 1.33886,0 0,6.58871 6.56641,0 0,1.30358 4.34441,0 0,-1.27523 c 70.10615,0 135.79317,0 205.89931,0 l 0,1.34605 4.31585,0 0,-1.34605 6.62333,0 0,-6.53204 1.32472,0 0,-4.32157 -1.29617,0 0,-4.79069 0,-16.28925 1.29617,0 0,-4.32162 -1.32472,0 0,-6.53199 -6.62333,0 0,-1.3461 z m 0.92588,0.89268 2.49265,0 0,0.45342 -2.49265,0 z m -210.27227,0.0709 2.54965,0 0,0.38256 -2.54965,0 z m -7.33554,0.49589 6.43821,0 0,0.77935 -5.66903,0 0,5.72434 -0.76918,0 z m 7.33554,0 2.54965,0 0,0.34008 -1.60949,0 -0.0423,0.19836 0,0.0992 0.0423,0.14174 -0.94016,0 z m 3.44708,0 c 70.10615,0 135.79317,0 205.89931,0 l 0,0.24091 -1.76625,0 -0.0286,0.18419 0,0.14169 0.0286,0.21256 c -67.80548,0 -133.54912,0 -202.32417,0 l 0,-0.43927 -1.80889,0 z m 206.82519,0 2.49265,0 0,0.77935 -0.89738,0 0,-0.53844 -1.59527,0 z m 3.38997,0 6.53786,0 0,6.41866 -0.7834,0 0,-5.63931 -5.75446,0 z m -220.1004,0.90683 5.54083,0 0,2.11125 -3.50395,0 0,3.48561 -2.03688,0 z m 6.46667,0 0.86887,0 0,2.16791 2.57811,0 0,-1.84198 0.88315,0 0,3.37223 c 69.47455,0.11507 134.81857,-0.0992 204.11883,-0.0992 l 0,-3.37227 0.86892,0 0,1.85618 2.52115,0 0,-2.08289 0.86887,0 0,2.91886 3.53245,0 0,3.51396 3.03391,0 0,0.86433 -2.19354,0 0,2.56466 1.86595,0 0,0.86432 -3.39002,0 c 0,44.45339 0,-25.1588 0,19.29457 l 3.39002,0 0,0.86433 -1.86595,0 0,2.56461 2.19354,0 0,0.86433 -3.03391,0 0,3.51401 -3.53245,0 0,2.91885 -0.86887,0 0,-2.08289 -2.52115,0 0,1.85619 -0.86892,0 0,-3.37228 c -69.51117,-0.28649 -134.60666,-0.10513 -204.11883,-0.0994 l 0,3.37227 -0.88315,0 0,-1.84198 -2.57811,0 0,2.16791 -0.86887,0 0,-3.00388 -3.53241,0 0,-3.52816 -2.93426,0 0,-0.86432 2.09385,0 0,-2.4938 -1.85172,0 0,-0.86428 3.37584,0 c 0,-44.4345 0,25.19656 0,-19.23795 l -3.37584,0 0,-0.86432 1.85172,0 0,-2.49375 -2.09385,0 0,-0.86433 2.93426,0 0,-3.52816 3.53241,0 z m 5.22746,0 c 68.90495,0 133.39079,0 202.29571,0 l 0,2.70635 c -68.74485,0.16744 -133.40793,0.085 -202.29571,0.085 z m 208.40627,0 5.64053,0 0,5.51183 -2.13653,0 0,-3.48561 -3.504,0 z m -219.95792,0.11338 0,1.88449 1.8944,0 0,-1.88449 z m 223.59007,0.0284 0,1.88449 1.88022,0 0,-1.88449 z m -223.46191,0.085 1.58108,0 0,1.58691 -1.58108,0 z m 216.43979,0 0.69789,0 0,0.9635 -0.69789,0 z m 7.19306,0.0426 1.59531,0 0,1.57276 -1.59531,0 z m -215.65635,0.0567 0.74067,0 0,0.94934 -0.74067,0 z m 217.60772,6.07858 0.7834,0 0,2.5363 -0.3276,0 0,-1.61532 -0.21362,-0.0284 -0.0855,0 -0.15671,0.0284 z m 0.89742,0 0.3988,0 0,2.5363 -0.3988,0 z m -228.21939,0.085 0.44153,0 0,2.47964 -0.44153,0 z m 0.56973,0 0.76918,0 0,0.90683 -0.54123,0 0,1.57281 -0.22795,0 z m 225.34214,1.70029 0.96858,0 0,0.75099 -0.96858,0 z m -224.20263,0.0992 0.95434,0 0,0.68013 -0.95434,0 z m 226.06853,1.54445 0.3276,0 0,12.28469 0,4.00451 0,0.0992 0,3.81149 0,0.0992 0,1.37445 0,-0.59365 -0.3276,0 0,-1.78532 -0.4558,0 0,2.37897 0,-1.37445 0,-0.0992 0,-3.81149 0,-0.0992 0,-4.0045 0,-10.49938 0.4558,0 z m -227.20804,0.0567 0.22795,0 0,1.77116 0.18512,0.0284 0.15671,0 0.1994,-0.0284 c 0,43.82996 0,-26.40573 0,17.42424 l -0.1994,-0.0284 -0.15671,0 -0.18512,0.0284 0,1.77115 -0.22795,0 c 0,-45.01073 0,24.04419 0,-20.96655 z m 223.81807,1.72865 2.82024,0 0,18.51377 0,-1.00452 -2.82024,0 c 0,-43.85827 0,26.34903 0,-17.50925 z m -222.92069,0.0708 2.72059,0 c 0,43.81109 0,-26.44348 0,17.36761 l -2.72059,0 c 0,-43.81109 0,26.44348 0,-17.36761 z m -1.46711,20.08807 0.44153,0 0,2.47964 -0.44153,0 z m 0.56973,0 0.22795,0 0,1.57281 0.54123,0 0,0.90683 -0.76918,0 z m 1.13951,0 0.95434,0 0,0.68013 -0.95434,0 z m 224.20263,0.0284 0.96858,0 0,0.75095 -0.96858,0 z m 1.8659,0 0.3276,0 0,2.53626 -0.7834,0 0,-0.92099 0.15671,0.0284 0.0855,0 0.21362,-0.0284 z m 0.44162,0 0.3988,0 0,2.53626 -0.3988,0 z m -227.64966,3.34387 0.76918,0 0,5.72443 5.66903,0 0,0.77926 -6.43821,0 z m 0.89738,0 2.03688,0 0,3.48565 3.50395,0 0,2.11125 -5.54083,0 z m 223.6044,0.085 2.13653,0 0,5.51188 -5.64053,0 0,-2.02622 3.504,0 z m 2.25046,0 0.7834,0 0,6.41867 -6.53786,0 0,-0.77925 5.75446,0 z m -214.16073,2.72051 c 68.90415,0.2038 133.39226,-0.3186 202.29571,0.085 l 0,2.70635 c -68.90492,0 -133.39076,0 -202.29571,0 z m 212.03842,0.76514 0,1.88449 1.88022,0 0,-1.88449 z m -223.59007,0.0284 0,1.88454 1.8944,0 0,-1.88454 z m 223.76101,0.15589 1.59531,0 0,1.57276 -1.59531,0 z m -223.63285,0.0284 1.58108,0 0,1.58701 -1.58108,0 z m 7.9765,0.53848 0.74067,0 0,0.9493 -0.74067,0 z m 208.46329,0.085 0.69789,0 0,0.96355 -0.69789,0 z m -210.27227,1.31774 0.89779,0.0412 0.0423,0.39812 1.6095,0 0,0.34004 -2.54966,0 z m 5.25597,0 c 68.91443,0 133.40976,0 202.32417,0 l -0.0286,0.21251 0,0.14173 0.0286,0.18416 1.76625,0 0,0.2409 c -70.10614,0 -135.79316,0 -205.89931,0 l 0,-0.34004 1.80889,0 z m 206.61157,0 0.89738,0 0,0.7793 -2.49265,0 0,-0.2409 1.59527,0 z m -211.86754,0.89268 2.54965,0 0,0.38255 -2.54965,0 z m 210.27227,0 2.49265,0 0,0.45337 -2.49265,0 z"
       inkscape:connector-curvature="0"
       sodipodi:nodetypes="cccccccccccccccccccccccccccccccccccccccccccccccccccccccccccccccccccccccccccccccccccccccccccccccccccccccccccccccccccccccccccccccccccccccccccccccccccccccccccccccccccccccccccccccccccccccccccccccccccccccccccccccccccccccccccccccccccccccccccccccccccccccccccccccccccccccccccccccccccccccccccccccccccccccccccccccccccccccccccccccccccccccccccccccccccccccccccccccccccccccccccccccccccccccccccccccccccccccccccccccccccccccccccccccccccccc"
       inkscape:export-filename="C:\Users\seldon\Pictures\ConceptArt\buttonBorder.png"
       inkscape:export-xdpi="180"
       inkscape:export-ydpi="180" />
  </g>
</svg>
